PathFileType  4	(X/Y/Z) C:\Users\antoi\Documents\MyRepositories\mobilecap\ResultsAnalysis
DataRate	CameraRate	NumFrames	NumMarkers	Units	OrigDataRate	OrigDataStartFrame	OrigNumFrames
100.0	100.0	7	51	mm	100.0	152	242
Frame#	Time	r_knee			r_shank_antsup			r_ankle			r_calc			r_5meta			r_toe			L_knee			L_shank_antsup			L_ankle			L_calc			L_5meta			L_toe			r_sh2			r_sh3			r_sh4			L_sh2			L_sh3			r_thigh1			r_thigh2			r_thigh3			r_thigh4			r_thigh5			L_thigh1			L_thigh2			L_thigh3			L_thigh4			r.ASIS			r.PSIS			L.ASIS			L.PSIS			C7			R_Shoulder			L_Shoulder			R_Sternum			L_Sternum			R_humerus			R_elbow_med			R_elbow_lat			R_forearm			R_wrist_radius			R_wrist_ulna			L_humerus			L_elbow_med			L_elbow_lat			L_forearm			L_wrist_radius			L_wrist_ulna			R_HJC			L_HJC			R_HJC_reg			L_HJC_reg			
		X1	Y1	Z1	X2	Y2	Z2	X3	Y3	Z3	X4	Y4	Z4	X5	Y5	Z5	X6	Y6	Z6	X7	Y7	Z7	X8	Y8	Z8	X9	Y9	Z9	X10	Y10	Z10	X11	Y11	Z11	X12	Y12	Z12	X13	Y13	Z13	X14	Y14	Z14	X15	Y15	Z15	X16	Y16	Z16	X17	Y17	Z17	X18	Y18	Z18	X19	Y19	Z19	X20	Y20	Z20	X21	Y21	Z21	X22	Y22	Z22	X23	Y23	Z23	X24	Y24	Z24	X25	Y25	Z25	X26	Y26	Z26	X27	Y27	Z27	X28	Y28	Z28	X29	Y29	Z29	X30	Y30	Z30	X31	Y31	Z31	X32	Y32	Z32	X33	Y33	Z33	X34	Y34	Z34	X35	Y35	Z35	X36	Y36	Z36	X37	Y37	Z37	X38	Y38	Z38	X39	Y39	Z39	X40	Y40	Z40	X41	Y41	Z41	X42	Y42	Z42	X43	Y43	Z43	X44	Y44	Z44	X45	Y45	Z45	X46	Y46	Z46	X47	Y47	Z47	X48	Y48	Z48	X49	Y49	Z49	X50	Y50	Z50	X51	Y51	Z51	

152	1.51000000	-92.87529	433.08656	-416.04504	-72.55139	332.32493	-416.98445	-298.78472	98.31267	-404.60469	-370.07065	61.94988	-457.26599	-201.04421	42.19308	-349.91525	-157.10381	69.06423	-397.29829	-69.99506	448.65553	-750.23182	-36.39517	351.76219	-735.15952	-254.62716	103.71253	-736.09013	-341.39587	62.02134	-687.66872	-167.55089	42.84247	-781.34407	-114.31341	61.33325	-727.12451	-136.20253	237.34956	-413.63397	-127.53648	369.63318	-379.96291	-195.51396	278.36344	-371.68777	-98.16822	401.27383	-779.71162	-161.41791	297.03988	-785.67895	-298.42149	610.57091	-392.61524	-201.95501	564.24684	-410.85556	-199.69308	503.44650	-377.32955	-346.01645	508.64497	-377.80134	-239.11787	463.72476	-394.11582	-248.44103	627.21744	-737.47845	-119.97059	574.51958	-722.46137	-283.04900	539.78474	-792.08358	-162.69706	485.24974	-768.27555	-313.23906	661.17614	-442.21623	-488.05570	756.93924	-529.63726	-292.58943	663.75859	-690.83548	-476.70920	759.47416	-626.34671	-211.02543	1076.82816	-536.80597	-130.45616	1017.34683	-366.17481	-106.82137	1037.59733	-682.19618	-96.45590	974.27259	-506.97401	-90.81763	982.01234	-550.93594	-179.43268	896.31826	-310.13978	-332.83740	749.69766	-346.94642	-343.87609	769.99936	-276.56682	-253.19237	759.61647	-252.23540	-94.37314	745.32686	-271.89915	-105.13852	700.77838	-252.08276	-182.55337	925.49556	-758.31421	-370.98234	835.23993	-730.58474	-359.11228	851.35302	-814.03912	-290.38602	815.61716	-821.81916	-148.90264	744.08900	-777.11657	-174.43841	708.79550	-808.45703	-415.64656	604.37022	-473.69516	-399.45021	608.09384	-662.52765	-403.97174	610.58148	-489.46660	-384.79071	614.86346	-652.95178	
153	1.52000000	-88.66487	430.25529	-414.77407	-69.83272	329.90992	-416.00541	-298.40752	98.34068	-404.69853	-370.00036	62.07860	-457.37997	-201.04293	42.31758	-349.66924	-157.06367	69.04725	-397.25707	-67.05725	444.89443	-749.73373	-34.75552	347.67995	-735.48648	-255.27275	102.82069	-734.73033	-341.50509	60.80906	-686.76297	-168.11013	43.01710	-781.28528	-114.73925	61.34484	-727.05428	-134.50787	235.59125	-412.96742	-124.26561	367.36844	-378.98946	-193.82346	276.99214	-370.91268	-96.53459	398.07589	-779.32296	-161.20976	294.53214	-784.47594	-294.39339	607.24598	-391.50447	-198.45328	560.56372	-409.36905	-195.58054	500.15205	-376.37705	-341.87461	505.29576	-377.03954	-235.04063	460.45638	-393.25538	-244.80510	623.34337	-737.28589	-116.55320	570.43002	-722.67880	-280.10220	535.55263	-790.80816	-159.84438	480.88447	-767.64811	-309.90124	657.14668	-441.12748	-484.79466	753.67337	-530.17007	-289.35069	658.78776	-690.78922	-473.17453	756.13533	-626.16339	-208.24238	1072.30290	-537.92317	-127.94783	1010.29656	-366.38032	-101.67506	1029.81638	-681.48671	-93.89122	970.21084	-506.43736	-87.96346	977.28019	-549.78952	-177.88366	886.80642	-314.20305	-331.72707	743.17459	-359.67413	-342.32968	758.80982	-288.82657	-251.81471	746.78160	-265.53322	-92.26495	734.26986	-287.38786	-102.65972	688.99754	-269.20091	-171.58176	912.18324	-755.67255	-357.34975	815.43924	-733.24784	-340.50940	826.86527	-816.51580	-270.50109	793.14097	-817.27539	-131.24063	725.45961	-761.89905	-154.47519	689.00503	-794.30982	-412.97194	600.94858	-473.14193	-396.59663	603.90757	-661.97331	-401.36616	606.10463	-488.95000	-381.50246	610.31437	-653.03482	
154	1.53000000	-85.05612	427.54768	-413.45554	-67.29717	327.52732	-415.18774	-297.97932	98.31016	-404.78705	-369.93657	62.21628	-457.49994	-201.07095	42.29094	-349.57683	-157.04368	69.02136	-397.20645	-64.30810	440.18232	-748.37471	-33.45155	343.41429	-734.93268	-256.07776	101.89064	-734.11050	-341.78724	59.65348	-686.68692	-168.61078	42.89546	-781.41246	-115.29051	61.37020	-727.17525	-132.82557	233.75951	-412.57460	-121.47684	365.22680	-378.39486	-192.34697	275.25703	-370.13904	-95.15740	394.38784	-778.22657	-160.88392	291.55202	-783.20627	-290.40300	603.93836	-390.67855	-194.67315	557.11183	-407.81239	-191.74094	496.73087	-375.52467	-337.98479	501.89524	-376.51189	-231.18867	457.05023	-392.81385	-241.10950	619.14262	-737.66118	-113.06108	565.78587	-722.64819	-277.11482	530.45105	-789.33402	-157.01515	475.87943	-766.35367	-306.86731	654.17375	-440.33670	-482.47488	750.09217	-530.93400	-286.16799	655.28756	-690.32293	-470.55133	752.89942	-626.12190	-208.10079	1067.34949	-539.41826	-125.41182	1005.19682	-367.32400	-97.02336	1023.92154	-680.74443	-92.05290	967.50565	-506.38009	-85.77855	974.34974	-549.31433	-174.71258	879.04749	-318.56477	-328.42289	737.09591	-369.68395	-337.72187	748.94973	-298.26775	-247.26725	736.80917	-276.35176	-86.96447	727.21765	-301.66013	-96.47615	681.10875	-285.11133	-160.19245	901.33975	-752.48298	-341.73478	796.27850	-736.72870	-319.02478	804.15892	-818.49811	-247.83515	774.40556	-812.18440	-111.07338	713.30478	-746.35379	-131.00110	674.89506	-778.40434	-410.18281	597.80965	-472.81343	-393.36294	600.35476	-661.61098	-398.40472	601.90949	-488.83195	-377.83550	606.75520	-653.03376	
155	1.54000000	-81.81053	425.02650	-412.50336	-64.84818	325.22372	-414.58840	-297.62210	98.32518	-404.84877	-369.85147	62.38498	-457.57323	-201.09538	42.23309	-349.55571	-157.00002	68.99701	-397.18210	-61.52938	435.42401	-746.18446	-31.66251	340.03869	-733.52970	-256.65647	101.23891	-734.26432	-342.15601	58.75243	-687.00931	-168.92471	42.51333	-781.74730	-115.73179	61.33970	-727.54622	-131.30885	232.02414	-412.36435	-118.96195	363.49832	-377.99998	-190.55003	273.97971	-369.63223	-93.22843	391.52862	-776.40230	-159.40200	289.00125	-782.09310	-286.80030	600.91374	-389.98430	-189.82149	554.50226	-407.37061	-188.19613	493.64529	-374.74274	-334.46530	498.75218	-376.18778	-227.60085	453.92373	-392.56335	-237.59005	614.85734	-738.27444	-109.54319	561.32484	-722.32492	-273.99537	524.89364	-787.82309	-153.85887	470.75368	-764.09769	-304.12007	652.52475	-439.73524	-480.83308	746.33273	-531.83181	-283.12973	653.15601	-689.89052	-468.66072	749.51446	-626.50977	-209.54189	1062.52923	-541.89294	-123.02740	1002.62440	-368.83863	-92.97484	1019.94684	-680.19053	-90.97158	965.91720	-506.84020	-84.17680	972.90824	-549.77449	-169.60062	873.97295	-322.97603	-322.03232	731.48041	-377.05050	-329.58397	740.27914	-304.69206	-238.73163	729.25214	-284.90309	-78.32327	724.35213	-314.47339	-86.32305	677.35502	-299.49945	-148.04716	893.28675	-749.05715	-324.44949	778.23296	-740.97807	-294.73941	783.46966	-819.16955	-223.01211	759.54561	-807.07777	-88.49532	708.04356	-730.87499	-104.02112	666.89453	-761.48775	-407.11393	595.14060	-472.63758	-389.74901	597.30232	-661.39043	-395.13044	598.39437	-488.76026	-374.01510	603.91367	-653.00093	
156	1.55000000	-78.67827	422.73782	-411.97598	-62.62057	323.16202	-414.13111	-297.39529	98.35903	-404.91774	-369.76149	62.55696	-457.65069	-201.09277	42.24518	-349.52845	-156.94947	68.99217	-397.18784	-58.33658	431.84868	-743.43909	-29.04344	337.76260	-731.25440	-256.74696	101.01285	-734.82776	-342.36951	58.53764	-687.57074	-169.01164	42.12268	-782.12757	-115.89641	61.23661	-727.90630	-130.02298	230.53892	-412.25178	-116.55355	362.13051	-377.53147	-188.50076	273.30734	-369.55643	-90.14479	390.04798	-773.89898	-156.67024	287.81876	-781.19523	-283.60390	598.27686	-389.36380	-185.73090	552.45046	-407.32798	-184.97615	491.15082	-374.12257	-331.33714	496.05706	-376.15216	-224.37082	451.34536	-392.36977	-234.27147	610.90614	-738.84914	-106.06909	557.85035	-721.66186	-270.67421	519.48961	-786.08464	-150.32237	466.20909	-761.07845	-301.59022	651.94830	-439.51500	-479.49395	742.71003	-532.76940	-280.45427	652.16243	-690.06301	-467.11100	745.76365	-627.32503	-202.19380	1067.88681	-544.39085	-120.96719	1002.58100	-370.77516	-89.72780	1017.84920	-679.65213	-90.63285	965.43321	-507.56804	-83.40397	971.57280	-550.83925	-162.48799	872.47657	-327.07306	-312.21059	726.41072	-381.45050	-317.60293	732.43376	-308.30182	-225.88855	723.90645	-291.43100	-66.42119	726.00778	-325.54940	-72.21062	678.21511	-311.94562	-135.38746	888.33074	-745.58049	-306.03725	762.15146	-746.37003	-267.98447	765.50609	-819.16102	-196.46081	748.33996	-802.08259	-63.90489	709.68999	-715.67659	-74.24853	665.97536	-745.05704	-403.69332	592.92889	-472.72766	-385.99069	594.67490	-661.45375	-391.90267	596.14587	-488.71134	-370.36535	601.45463	-653.17204	
157	1.56000000	-75.80364	420.87779	-411.70132	-60.71373	321.40449	-413.86793	-297.20798	98.35883	-405.19238	-369.65815	62.68150	-457.84342	-201.07689	42.18217	-349.68681	-156.93139	68.98084	-397.21522	-54.43459	430.12668	-740.57783	-25.89982	336.15569	-728.41096	-256.46069	101.14255	-735.18275	-342.32398	58.87928	-687.91889	-168.96376	41.93258	-782.31115	-115.78650	61.12888	-728.00284	-128.88225	229.31456	-412.26069	-114.32520	360.95399	-377.27924	-186.88104	272.76173	-369.55852	-86.00654	389.42464	-771.12580	-153.49001	288.18029	-780.23439	-280.82007	596.11502	-389.03990	-183.56409	550.56411	-406.92079	-182.19392	489.02664	-374.08768	-328.61871	493.93931	-376.36116	-221.57270	449.36818	-392.30972	-230.98523	607.75217	-739.24470	-102.69130	555.49335	-720.52540	-267.15081	514.99782	-784.35816	-146.65121	462.74115	-757.88491	-299.20369	651.82373	-439.78041	-478.22434	739.57091	-533.57765	-278.16036	651.98305	-690.72112	-465.62924	741.87295	-628.02818	-187.36840	1082.81297	-545.91133	-119.45038	1004.69717	-372.91449	-87.48596	1017.78356	-679.11583	-90.87809	966.43312	-508.63974	-83.52955	970.90159	-552.32133	-154.29038	873.61121	-330.54161	-298.68545	721.22996	-383.02840	-301.62658	725.16832	-309.42092	-209.08498	721.02416	-295.79600	-51.55603	732.48619	-334.53077	-54.42438	684.09928	-321.80963	-122.68155	886.61699	-742.57877	-284.68093	747.61183	-751.23123	-238.88349	750.70962	-818.85924	-168.06006	740.78373	-797.02454	-37.90954	717.93315	-700.97456	-42.17374	672.51431	-729.50359	-400.09931	591.03041	-473.04615	-382.38716	592.54159	-661.77325	-389.01953	595.32321	-488.78047	-367.05670	599.33392	-653.47378	
158	1.57000000	-73.40715	419.48141	-411.63066	-59.03485	319.86929	-413.84738	-296.99140	98.32187	-405.69457	-369.54977	62.74084	-458.15184	-201.08122	42.20112	-349.84321	-156.94021	68.95204	-397.28957	-50.11479	429.81874	-737.86127	-22.76455	334.86357	-725.45362	-256.02494	101.46780	-735.09809	-342.19978	59.10465	-687.62793	-168.87195	41.92736	-782.30245	-115.52099	61.04933	-727.91810	-127.87355	228.26742	-412.43918	-112.37251	359.78952	-377.52139	-185.85928	272.07663	-369.41498	-81.59735	389.02552	-768.44124	-150.58081	289.18122	-778.75466	-278.57446	594.60465	-389.02425	-181.87621	548.94400	-406.63633	-179.91246	487.17897	-374.66078	-326.33010	492.52640	-376.62407	-219.25798	448.00252	-392.41677	-227.62177	605.58494	-739.51307	-99.45122	553.89163	-719.13071	-263.56113	511.81802	-783.06456	-143.10121	460.29839	-754.99110	-297.01645	651.85987	-440.15069	-476.95202	737.29175	-534.03069	-276.18852	652.39040	-691.54654	-464.15151	738.57825	-628.35371	-179.36404	1093.89383	-546.53647	-118.78685	1008.76560	-374.95248	-86.42332	1019.80826	-678.86879	-91.51773	969.18101	-510.16054	-84.23371	972.98254	-554.06480	-145.98901	876.25025	-333.29133	-281.25252	715.61771	-382.38037	-281.85376	718.91335	-308.34426	-189.01326	720.94526	-297.89479	-34.37951	743.98460	-341.16949	-33.54565	695.32255	-328.62526	-109.94469	887.65561	-740.44927	-257.82369	733.64794	-752.64938	-207.21746	739.16005	-817.51455	-137.49343	737.40989	-791.65922	-11.19385	732.37044	-687.32056	-8.34823	686.36554	-714.93680	-396.73033	589.58090	-473.40274	-379.21915	591.13725	-662.14815	-386.63645	595.51112	-488.81408	-364.24943	597.76172	-653.77544	
